<?xml version="1.0" standalone="no"?>
<!DOCTYPE svg PUBLIC "-//W3C//DTD SVG 20010904//EN"
 "http://www.w3.org/TR/2001/REC-SVG-20010904/DTD/svg10.dtd">
<svg version="1.0" xmlns="http://www.w3.org/2000/svg"
 width="266.000000pt" height="266.000000pt" viewBox="0 0 266.000000 266.000000"
 preserveAspectRatio="xMidYMid meet">
<metadata>
Created by potrace 1.11, written by Peter Selinger 2001-2013
</metadata>
<g transform="translate(0.000000,266.000000) scale(0.100000,-0.100000)"
fill="#000000" stroke="none">
<path d="M3 1910 c2 -11 7 -23 12 -27 4 -5 5 -2 0 6 -6 10 -4 12 4 7 9 -6 9
-11 1 -21 -7 -9 -6 -16 4 -24 11 -9 16 -9 22 0 5 8 3 9 -6 4 -8 -5 -11 -4 -6
3 4 6 14 8 22 5 13 -5 13 -7 2 -14 -11 -7 -10 -11 2 -18 8 -5 19 -7 25 -3 5 3
3 -3 -5 -13 -9 -11 -10 -16 -3 -11 7 4 13 2 13 -3 0 -6 5 -11 11 -11 5 0 7 6
3 13 -4 6 5 1 19 -12 19 -17 24 -28 17 -36 -7 -9 -5 -17 7 -26 11 -9 14 -10 9
-1 -4 6 -2 12 3 12 6 0 11 -7 11 -15 0 -18 11 -19 29 -2 11 10 13 10 7 0 -5
-8 -1 -13 9 -13 10 0 13 -5 9 -12 -4 -7 -3 -8 5 -4 9 6 9 11 1 21 -9 10 -5 11
22 1 18 -6 40 -15 48 -19 8 -5 5 0 -7 11 l-23 20 24 -2 c13 0 22 -4 20 -8 -3
-4 15 -7 40 -6 24 0 50 -3 57 -7 8 -5 5 2 -6 16 -14 17 -15 20 -3 10 9 -7 23
-9 29 -5 7 4 9 3 6 -3 -4 -6 5 -13 20 -16 26 -5 26 -4 8 9 -10 8 -13 14 -7 14
7 0 22 -10 34 -22 16 -16 20 -17 15 -5 -6 15 -3 16 13 7 15 -8 18 -7 15 3 -4
8 3 13 15 14 11 1 20 -3 20 -8 0 -6 -4 -7 -10 -4 -6 3 -7 -1 -3 -10 4 -12 8
-13 13 -5 4 7 12 10 18 6 6 -3 14 -1 18 5 4 8 3 9 -4 5 -7 -4 -12 -3 -12 3 0
5 9 9 20 8 15 -1 19 -6 15 -22 -5 -18 -5 -18 5 -2 6 9 16 15 21 12 5 -4 6 -11
3 -17 -4 -7 -2 -8 5 -4 6 4 9 12 6 17 -10 15 2 10 21 -8 16 -16 16 -16 10 3
-4 14 -2 21 8 21 9 0 14 -3 12 -6 -2 -3 3 -13 12 -21 14 -13 15 -12 9 4 -5 12
-3 16 5 13 7 -2 12 -10 10 -16 -1 -7 2 -10 8 -6 6 3 8 11 5 16 -4 5 -3 9 2 10
4 0 16 2 26 4 9 2 17 -1 17 -6 0 -4 8 -5 18 -2 15 6 16 5 2 -13 -9 -12 -4 -10
14 6 16 14 26 19 22 13 -4 -7 -3 -13 1 -13 5 0 15 6 22 13 11 10 13 10 7 0 -4
-7 -2 -13 4 -13 6 0 8 -5 4 -12 -5 -8 0 -7 11 2 11 9 16 10 11 3 -4 -8 -2 -13
7 -13 8 0 21 -8 28 -17 8 -10 9 -14 2 -10 -8 5 -11 1 -10 -12 1 -16 4 -18 16
-8 12 10 13 9 6 -2 -6 -11 -4 -13 8 -8 12 4 14 2 10 -10 -5 -12 -1 -14 18 -8
19 5 21 4 9 -5 -12 -9 -12 -13 -2 -17 10 -4 10 -8 1 -19 -10 -13 -8 -13 16 -4
15 6 30 8 33 5 3 -3 0 -5 -7 -5 -7 0 -9 -5 -5 -12 4 -7 3 -8 -4 -4 -8 5 -10 2
-6 -9 5 -11 10 -13 19 -5 13 10 25 4 25 -14 0 -6 -5 -4 -10 4 -8 13 -10 12
-10 -2 0 -11 8 -18 20 -18 11 0 20 -6 20 -12 0 -9 4 -8 10 2 5 8 10 10 10 4 0
-5 -6 -16 -12 -23 -7 -7 -8 -12 -3 -11 21 5 36 0 30 -10 -3 -5 1 -10 9 -10 9
0 16 -5 16 -11 0 -5 -6 -7 -12 -3 -9 5 -9 2 1 -9 15 -18 26 -23 16 -7 -3 6 -1
10 4 10 6 0 11 -7 11 -16 0 -10 6 -14 14 -11 10 4 12 0 9 -14 -3 -11 0 -19 6
-19 7 0 10 4 7 8 -3 5 2 9 10 9 10 0 11 -4 4 -11 -14 -14 -13 -29 3 -20 8 5 8
2 -2 -9 -7 -9 -20 -17 -27 -17 -8 0 -14 -4 -14 -10 0 -5 8 -7 18 -3 9 3 14 3
10 -1 -3 -4 -12 -8 -20 -10 -26 -4 -39 -18 -33 -39 2 -12 2 -16 -1 -9 -8 17
-27 15 -21 -2 4 -10 0 -14 -13 -11 -14 3 -17 -1 -13 -12 4 -11 2 -14 -5 -9 -7
4 -12 1 -12 -9 0 -10 -5 -13 -12 -9 -8 5 -9 2 -4 -11 5 -15 4 -16 -9 -5 -9 7
-18 10 -22 6 -3 -3 -2 -6 4 -6 6 0 14 -7 17 -16 3 -8 2 -12 -4 -9 -6 3 -10 1
-10 -5 0 -6 -5 -8 -10 -5 -5 3 -10 1 -10 -5 0 -6 -4 -8 -10 -5 -14 9 -12 -8 3
-24 10 -11 8 -11 -11 -2 -19 10 -22 9 -22 -10 0 -17 -3 -19 -14 -10 -11 9 -13
6 -11 -13 2 -16 -1 -23 -9 -20 -6 2 -35 -16 -65 -41 -53 -45 -74 -58 -51 -30
15 18 10 19 -27 4 -46 -18 -62 -19 -57 -4 7 18 -25 13 -37 -6 -7 -11 -9 -10
-9 5 0 18 -1 18 -18 3 -14 -13 -21 -14 -30 -5 -9 9 -12 7 -12 -10 0 -12 -5
-22 -11 -22 -5 0 -7 4 -4 10 4 6 -1 7 -11 3 -15 -5 -15 -7 2 -17 11 -6 20 -17
22 -25 3 -12 0 -12 -12 -2 -11 9 -16 9 -22 0 -5 -8 -3 -9 6 -4 10 6 12 4 7 -8
-3 -9 -1 -19 5 -23 7 -4 8 -3 4 4 -4 7 -3 12 3 12 5 0 9 -9 8 -20 -1 -15 -6
-19 -22 -14 -16 4 -17 3 -5 -5 12 -9 13 -13 2 -20 -11 -7 -10 -9 3 -14 9 -4
14 -3 11 1 -3 5 2 9 10 9 10 0 8 -7 -8 -24 -21 -22 -21 -23 -3 -17 18 7 19 6
5 -11 -11 -14 -12 -19 -2 -22 6 -3 10 -9 7 -14 -4 -5 1 -6 10 -3 14 6 14 8 -2
21 -16 13 -15 13 7 1 14 -7 30 -11 35 -9 6 1 6 -1 2 -6 -5 -4 -14 -8 -20 -8
-23 0 -12 -30 11 -31 18 -1 20 1 11 12 -7 9 -7 14 -1 14 5 0 15 -7 22 -15 7
-8 18 -15 24 -14 7 0 7 2 -1 5 -7 3 -9 13 -6 22 4 13 3 14 -5 4 -7 -11 -11
-10 -16 4 -3 9 -4 19 -1 22 3 3 5 -1 5 -8 0 -7 3 -10 7 -7 3 4 12 2 20 -4 10
-9 17 -8 28 1 8 7 15 9 15 4 0 -5 7 -1 14 9 12 15 15 15 19 3 4 -9 15 -13 28
-11 13 3 27 1 33 -3 10 -8 28 -8 41 -2 3 1 9 3 14 4 5 0 13 4 16 8 4 4 15 3
25 -2 14 -8 17 -5 15 15 -2 18 1 22 13 18 9 -4 13 -2 9 4 -4 6 3 19 15 29 12
11 18 13 14 7 -9 -17 4 -16 26 1 10 7 15 16 11 19 -6 7 21 11 41 8 5 -1 4 5
-4 13 -13 17 -25 22 -16 8 3 -5 -2 -9 -10 -9 -11 0 -9 6 8 24 23 25 34 30 22
12 -4 -7 -1 -10 7 -7 8 3 13 13 13 22 -2 14 1 15 15 4 9 -7 13 -8 8 -3 -4 5 5
15 20 22 16 7 20 11 11 8 -10 -2 -18 0 -18 5 0 6 5 10 11 10 5 0 7 6 3 13 -6
9 -4 9 8 -1 11 -9 18 -10 23 -2 3 6 12 7 18 3 7 -3 4 3 -6 14 -19 22 -14 35
11 26 12 -5 14 -2 9 11 -4 10 -3 15 3 11 6 -3 20 1 32 9 12 9 18 16 12 16 -5
0 -15 -5 -21 -11 -8 -8 -13 -8 -18 0 -3 6 -3 11 2 10 20 -3 53 15 53 28 0 13
3 13 18 2 9 -7 14 -10 10 -5 -4 5 0 22 8 38 12 23 20 28 37 22 21 -6 21 -5 3
8 -15 12 -16 17 -6 23 9 5 11 4 6 -3 -4 -7 -2 -12 3 -12 6 0 11 5 11 11 0 5 4
7 10 4 5 -3 10 -2 10 4 0 5 -6 12 -12 15 -7 4 -2 4 11 2 20 -4 22 -1 19 18 -4
19 -1 22 15 18 15 -4 19 -1 14 10 -8 22 2 29 25 17 17 -9 18 -8 9 10 -9 17 -7
22 18 37 17 10 27 23 24 31 -3 7 -10 10 -16 6 -6 -3 -7 -1 -3 5 4 7 9 21 11
31 3 17 0 19 -20 11 -26 -10 -39 -2 -25 15 6 7 3 17 -10 28 -11 9 -20 13 -20
7 0 -5 8 -14 18 -19 9 -6 11 -11 5 -11 -7 0 -18 9 -25 20 -7 11 -16 20 -21 20
-4 0 -5 -5 -1 -12 5 -7 3 -8 -5 -3 -9 5 -10 10 -2 18 8 8 2 16 -21 30 -28 15
-29 17 -8 12 20 -5 18 -2 -9 13 -25 14 -30 21 -20 26 8 3 4 4 -9 2 -19 -4 -21
-2 -12 9 10 12 8 13 -10 10 -19 -4 -20 -2 -8 12 9 12 9 15 1 9 -7 -4 -13 -2
-13 3 0 6 -5 11 -11 11 -5 0 -7 -4 -4 -10 3 -6 -1 -7 -10 -3 -9 3 -13 9 -8 12
16 12 14 34 -2 27 -9 -3 -14 -2 -11 3 3 5 -3 11 -14 14 -11 3 -20 12 -20 21 0
9 -5 16 -11 16 -5 0 -7 -5 -3 -12 4 -6 3 -8 -4 -5 -5 4 -8 16 -5 26 3 10 -1
22 -8 27 -9 5 -11 2 -6 -12 5 -14 1 -12 -17 8 -13 15 -27 24 -30 20 -4 -3 -4
1 -1 10 4 10 -2 25 -14 37 -12 12 -20 23 -18 25 1 2 -2 8 -7 13 -5 4 -6 3 -3
-3 4 -7 1 -14 -7 -17 -10 -4 -12 1 -9 16 4 18 3 19 -6 7 -8 -11 -11 -12 -11
-2 0 8 -5 10 -12 6 -9 -5 -8 -2 1 9 12 15 12 17 -4 11 -13 -5 -16 -4 -11 4 4
7 2 12 -6 12 -9 0 -9 3 2 10 9 6 10 10 3 10 -6 0 -15 -5 -18 -10 -10 -17 -24
-2 -18 20 3 12 0 20 -6 20 -7 0 -9 -6 -6 -12 4 -7 0 -5 -8 4 -13 16 -54 17
-520 18 -501 0 -507 0 -504 -20z m1171 -136 c7 -19 2 -18 -19 6 -16 17 -16 20
-3 15 9 -4 19 -13 22 -21z m-221 -742 c-10 -11 -21 -17 -25 -15 -5 2 -8 -1 -8
-6 0 -6 -6 -11 -12 -11 -7 0 0 12 15 25 33 29 55 34 30 7z m297 -26 c0 -3 -4
-8 -10 -11 -5 -3 -10 -1 -10 4 0 6 5 11 10 11 6 0 10 -2 10 -4z m-313 -232
c-3 -3 -12 -4 -19 -1 -8 3 -5 6 6 6 11 1 17 -2 13 -5z m-232 -34 c3 -5 1 -10
-4 -10 -6 0 -11 5 -11 10 0 6 2 10 4 10 3 0 8 -4 11 -10z"/>
<path d="M1153 1911 c0 -11 4 -19 7 -19 20 2 30 -4 24 -14 -5 -8 -2 -9 10 -5
14 6 17 3 12 -8 -5 -13 -2 -14 17 -4 18 9 20 9 10 -2 -15 -16 -17 -33 -3 -24
5 3 18 1 27 -5 16 -10 16 -11 1 -6 -12 3 -15 1 -11 -9 3 -8 9 -13 13 -10 4 3
13 -2 20 -10 7 -8 16 -12 21 -9 5 3 9 -6 9 -20 0 -14 11 -36 25 -50 30 -30 34
-22 4 10 -15 16 -17 24 -8 29 7 5 10 4 6 -2 -8 -13 27 -46 37 -36 4 4 2 -5 -4
-21 -9 -26 -9 -27 5 -16 12 10 15 10 15 0 0 -8 3 -10 7 -7 3 4 12 2 20 -4 10
-9 10 -15 2 -25 -9 -11 -7 -14 10 -14 11 0 21 -5 21 -11 0 -5 6 -7 13 -3 8 5
8 2 -2 -9 -12 -15 -11 -17 3 -17 14 0 21 -12 17 -33 -1 -4 8 -3 18 3 17 8 19
7 17 -7 -2 -10 8 -29 22 -43 13 -14 22 -20 18 -13 -3 6 -2 15 4 18 6 4 10 3 9
-2 -4 -24 2 -35 17 -29 14 5 15 4 4 -9 -7 -9 -10 -18 -6 -22 3 -3 6 -1 6 5 0
17 17 15 24 -4 4 -10 2 -13 -7 -8 -8 5 -9 4 -2 -4 6 -6 22 -13 35 -15 21 -3
25 -10 25 -35 -1 -17 2 -29 6 -26 4 2 12 -2 18 -10 8 -10 5 -15 -14 -24 -14
-6 -26 -16 -26 -22 -1 -5 -2 -16 -3 -22 -1 -7 -9 -12 -18 -10 -10 1 -15 -4
-14 -15 1 -13 -6 -18 -21 -17 -17 0 -20 -3 -12 -12 7 -8 6 -14 -2 -20 -8 -4
-9 -3 -5 4 4 7 2 12 -3 12 -6 0 -11 -10 -12 -22 0 -13 -3 -17 -6 -10 -8 21
-20 13 -18 -13 2 -14 -1 -23 -6 -19 -5 3 -6 10 -3 16 5 7 2 8 -5 4 -7 -5 -10
-14 -7 -22 4 -10 -2 -14 -19 -14 -14 0 -25 -4 -25 -10 0 -5 7 -7 16 -3 10 3 6
-4 -9 -21 -27 -29 -47 -36 -26 -8 12 15 12 16 -2 5 -9 -7 -20 -9 -25 -5 -5 4
0 -4 11 -17 11 -14 15 -21 9 -18 -7 4 -15 0 -18 -9 -3 -9 -13 -14 -21 -11 -10
4 -12 1 -8 -10 4 -11 2 -14 -5 -9 -7 4 -12 2 -12 -4 0 -6 -5 -8 -12 -4 -10 6
-10 5 -1 -7 10 -12 8 -18 -7 -32 -11 -9 -26 -17 -33 -17 -6 0 -19 -5 -27 -11
-13 -8 -13 -9 2 -7 9 2 17 -1 17 -7 0 -5 -11 -8 -26 -7 -16 3 -23 0 -18 -7 3
-6 11 -8 17 -5 7 4 8 2 4 -4 -4 -7 -17 -12 -29 -12 -18 0 -19 -2 -7 -10 13 -8
12 -10 -5 -11 -11 -1 -23 -1 -26 -1 -3 1 -5 -10 -3 -24 1 -13 -2 -22 -7 -18
-5 3 -6 11 -2 17 4 7 -1 6 -10 -2 -13 -11 -15 -17 -6 -28 7 -7 9 -16 5 -20 -3
-3 -6 -2 -6 4 0 6 -7 13 -14 16 -11 4 -13 1 -9 -10 4 -10 2 -14 -5 -9 -6 3
-14 1 -18 -5 -5 -8 -3 -9 6 -4 8 5 11 3 8 -6 -3 -8 -14 -13 -24 -11 -15 2 -16
1 -5 -7 18 -11 23 -41 8 -41 -5 0 -7 -3 -4 -6 4 -4 14 -1 24 7 15 12 16 12 11
-2 -5 -12 -1 -16 15 -15 18 1 22 7 20 31 -2 22 0 26 7 15 5 -8 10 -11 10 -6 0
5 7 2 16 -5 14 -11 18 -11 29 4 11 16 13 16 19 2 4 -12 10 -14 25 -5 14 7 22
7 27 -2 5 -7 2 -8 -7 -3 -8 4 -6 0 4 -11 17 -18 17 -18 35 0 12 13 13 16 2 11
-8 -5 -12 -4 -7 0 4 5 20 10 35 11 15 1 36 5 47 9 14 5 16 4 7 -2 -10 -8 -10
-12 1 -22 12 -9 18 -9 30 3 8 8 18 12 22 8 5 -4 5 -1 1 6 -6 11 -12 10 -29 -4
-20 -17 -20 -16 1 6 20 22 25 23 45 11 17 -11 19 -11 10 0 -15 15 -17 33 -3
24 6 -4 7 1 3 11 -5 14 -3 16 12 11 14 -6 16 -5 6 6 -9 12 -6 14 14 12 21 -3
23 -1 15 15 -15 28 -12 36 6 14 8 -10 13 -14 11 -9 -3 6 -1 20 4 33 7 19 12
21 27 13 17 -9 18 -7 14 14 -2 15 0 25 7 25 7 0 9 -5 5 -12 -4 -7 2 -5 13 5
11 9 22 14 26 11 3 -3 4 9 2 27 -3 27 -2 30 6 17 5 -10 15 -18 22 -18 8 0 9 2
1 8 -6 4 -11 15 -11 24 0 13 4 15 18 7 15 -7 17 -6 13 6 -3 8 1 22 10 30 19
19 22 6 4 -15 -11 -12 -10 -12 5 0 11 8 16 21 13 32 -3 15 -2 17 9 8 10 -8 16
-4 26 19 9 21 16 26 22 18 6 -8 7 -4 4 10 -3 14 0 21 7 20 6 -1 10 4 8 11 -1
8 2 11 7 7 6 -3 8 -13 5 -23 -4 -11 2 -8 16 8 12 14 19 20 16 14 -3 -7 6 -19
20 -29 19 -12 25 -23 21 -40 -3 -20 -1 -23 13 -15 10 5 22 5 31 -2 11 -8 11
-9 -3 -4 -12 3 -18 0 -18 -9 0 -8 3 -14 8 -14 22 4 42 -2 37 -11 -4 -6 -11 -7
-17 -4 -7 4 -8 2 -4 -4 4 -6 14 -8 23 -5 11 4 14 3 9 -5 -4 -7 -1 -12 8 -12 9
0 16 -5 16 -11 0 -5 -4 -7 -10 -4 -16 10 -11 -1 7 -16 11 -10 14 -10 9 -1 -4
6 -2 12 3 12 6 0 11 -7 11 -17 0 -9 3 -13 7 -10 3 4 19 -6 34 -22 15 -16 31
-26 35 -23 5 4 2 -1 -5 -11 -10 -12 -10 -17 -2 -17 7 0 9 -5 5 -13 -5 -8 -2
-8 9 2 12 9 17 10 17 2 0 -7 5 -9 13 -5 9 6 9 4 -1 -8 -11 -14 -10 -17 7 -23
12 -3 21 -14 21 -23 0 -15 2 -15 11 -2 9 12 10 10 6 -8 -4 -18 -3 -21 7 -13
21 17 27 -1 9 -23 -10 -12 -11 -15 -3 -8 20 17 26 15 27 -9 3 -31 18 -43 18
-14 0 12 -4 21 -9 17 -5 -3 -6 0 -2 7 6 8 12 9 20 2 9 -7 17 -7 26 2 12 10 12
9 1 -5 -7 -10 -18 -15 -23 -12 -6 4 -5 -3 2 -15 12 -24 31 -24 38 0 3 12 2 12
-7 -1 -5 -8 -13 -11 -18 -7 -8 9 17 28 28 21 4 -2 9 1 11 8 3 8 12 8 36 -3 18
-8 32 -18 32 -22 0 -5 -5 -5 -12 -1 -7 4 -8 3 -4 -4 12 -19 26 -14 26 9 0 12
-8 23 -20 26 -11 3 -20 9 -20 15 0 5 10 3 23 -4 12 -7 26 -11 31 -10 5 2 6 -4
2 -13 -3 -9 -2 -14 3 -11 5 3 11 -1 15 -9 9 -24 29 -18 24 8 -4 21 -1 23 39
23 42 1 54 -8 31 -22 -6 -4 -8 -3 -5 3 3 5 0 10 -8 10 -11 0 -12 -4 -4 -14 9
-9 8 -13 0 -13 -6 0 -14 7 -17 15 -4 8 -11 15 -17 15 -6 0 -3 -8 6 -17 21 -22
83 -27 65 -6 -8 10 -7 13 5 13 9 0 18 -8 21 -17 2 -10 4 -7 3 7 -2 14 -7 24
-13 23 -6 -1 -11 5 -11 12 0 12 3 12 16 2 12 -10 14 -9 8 7 -6 14 -4 17 8 12
8 -3 15 0 15 5 0 7 -11 9 -25 7 -14 -3 -28 -1 -32 5 -3 6 -1 7 5 3 7 -4 12 -2
12 3 0 6 -7 11 -15 11 -9 0 -15 10 -16 23 -1 16 -2 18 -6 5 -2 -10 -9 -18 -14
-18 -6 0 -8 4 -5 9 8 12 -4 42 -13 37 -4 -3 -13 5 -21 17 -11 19 -11 21 1 12
8 -5 3 0 -11 12 -14 13 -29 23 -33 23 -5 0 -5 5 -2 10 3 6 1 10 -5 10 -6 0
-16 5 -23 10 -7 6 -21 18 -32 26 -11 9 -15 13 -8 10 6 -4 15 -2 18 4 4 6 3 9
-2 8 -20 -5 -55 16 -68 43 -9 16 -13 29 -10 29 3 0 -10 14 -29 31 -22 19 -40
28 -48 23 -11 -6 -11 -5 0 8 16 20 -7 45 -25 27 -9 -9 -11 -4 -9 15 3 21 1 24
-10 15 -11 -9 -14 -8 -14 5 0 9 5 16 12 16 6 0 9 3 6 6 -4 3 -16 0 -28 -6 -20
-11 -21 -10 -10 10 7 14 8 20 1 16 -5 -4 -17 6 -25 21 -8 15 -15 23 -16 18 0
-6 8 -22 17 -35 12 -18 6 -15 -20 10 -37 35 -50 53 -22 30 13 -11 14 -10 10 3
-4 8 -14 17 -24 20 -10 2 -18 11 -18 20 0 9 4 14 9 11 4 -3 8 2 8 11 0 11 5
15 16 11 8 -3 12 -2 9 4 -3 5 3 14 14 20 11 6 18 17 15 24 -3 9 1 13 13 13 13
-2 18 4 17 21 -1 22 -1 22 20 5 11 -10 15 -11 9 -3 -15 17 -17 34 -3 25 6 -3
10 1 10 9 0 18 34 38 46 28 5 -4 1 3 -9 15 -12 14 -15 23 -7 28 6 3 9 1 8 -5
-2 -7 5 -14 14 -15 11 -2 15 2 11 11 -3 9 0 14 8 12 9 -2 14 5 13 19 0 12 3
20 8 17 4 -3 8 0 8 5 0 6 5 11 12 11 9 0 9 -3 0 -12 -7 -7 -12 -17 -12 -22 0
-6 7 0 16 12 8 12 12 27 9 32 -3 6 4 10 16 10 17 0 19 3 10 14 -9 11 -6 13 14
11 14 -2 23 1 19 6 -3 5 -11 6 -17 3 -7 -4 -1 5 12 19 29 32 28 31 28 12 0 -8
-5 -11 -10 -8 -6 4 -7 1 -3 -6 10 -16 19 -7 23 22 2 12 15 33 30 47 14 14 23
20 19 13 -3 -6 -2 -14 3 -17 5 -4 8 5 7 18 -2 17 1 23 13 21 20 -3 43 14 35
26 -3 5 0 9 5 9 6 0 11 6 11 13 0 15 31 47 46 47 5 0 -2 -9 -15 -19 -19 -14
-21 -20 -10 -26 8 -5 11 -5 7 0 -5 5 1 15 12 22 11 8 18 19 15 24 -4 5 -1 9 5
9 6 0 8 5 5 10 -4 6 -76 10 -183 10 -161 0 -205 -5 -203 -24 3 -18 0 -20 -10
-6 -9 12 -10 11 -6 -7 5 -21 -7 -40 -25 -42 -5 -1 -8 -4 -9 -8 -2 -17 -21 -31
-38 -28 -12 2 -18 -2 -17 -13 0 -10 -6 -16 -16 -16 -10 1 -14 -4 -11 -12 4
-10 0 -12 -13 -8 -18 6 -17 5 1 -9 19 -14 18 -15 -5 -13 -19 1 -24 -3 -22 -18
2 -11 -1 -15 -7 -11 -18 11 -34 -5 -21 -20 9 -11 8 -13 -9 -10 -13 2 -18 -1
-15 -10 6 -15 -29 -38 -41 -27 -5 4 -5 2 -2 -5 10 -17 -3 -43 -18 -37 -7 3
-16 0 -21 -7 -4 -8 -3 -10 4 -5 8 5 10 2 6 -9 -5 -11 -10 -13 -19 -5 -13 10
-29 -2 -30 -22 0 -3 -4 -10 -9 -15 -5 -5 -6 -3 -2 4 4 8 -2 17 -18 25 -14 6
-26 15 -26 20 0 5 5 6 12 2 7 -4 8 -3 4 5 -6 9 -11 9 -22 0 -12 -10 -13 -9 -8
6 6 14 4 16 -7 11 -8 -4 -5 0 6 8 18 16 18 16 -15 11 -29 -5 -31 -4 -12 4 23
11 31 24 9 15 -7 -2 -24 0 -38 6 -22 10 -22 10 -1 6 12 -2 20 0 16 5 -3 5 -14
9 -25 9 -13 0 -19 7 -19 24 0 13 -8 30 -17 37 -11 10 -14 10 -9 2 4 -7 2 -13
-3 -13 -11 0 -15 15 -12 34 1 5 -6 3 -15 -5 -16 -12 -17 -12 -11 5 6 14 4 17
-9 12 -14 -5 -15 -4 -4 9 10 12 9 16 -4 21 -9 3 -13 10 -10 15 3 5 2 9 -3 8
-25 -4 -42 3 -48 21 -3 11 -13 20 -21 20 -12 0 -19 19 -15 43 1 5 -3 6 -9 2
-5 -3 -10 -1 -10 6 0 7 -3 9 -6 6 -4 -4 -1 -13 6 -22 7 -9 11 -18 8 -20 -3 -3
-11 6 -18 20 l-13 25 -178 0 c-169 0 -178 -1 -176 -19z m1377 -85 c0 -3 -4 -8
-10 -11 -5 -3 -10 -1 -10 4 0 6 5 11 10 11 6 0 10 -2 10 -4z m-881 -33 c2 -2
-3 -3 -11 -3 -9 0 -19 7 -22 16 -6 15 -4 15 11 3 10 -7 20 -15 22 -16z m68
-85 c-3 -8 -6 -5 -6 6 -1 11 2 17 5 13 3 -3 4 -12 1 -19z m193 -144 c0 -8 -5
-12 -10 -9 -6 4 -8 11 -5 16 9 14 15 11 15 -7z m-360 -49 c0 -5 -5 -3 -10 5
-5 8 -10 20 -10 25 0 6 5 3 10 -5 5 -8 10 -19 10 -25z m565 -105 c-3 -5 -12
-10 -18 -10 -7 0 -6 4 3 10 19 12 23 12 15 0z m-420 -30 c3 -5 1 -10 -4 -10
-6 0 -11 5 -11 10 0 6 2 10 4 10 3 0 8 -4 11 -10z m-5 -66 c0 -8 -19 -13 -24
-6 -3 5 1 9 9 9 8 0 15 -2 15 -3z m555 -134 c3 -5 1 -10 -4 -10 -6 0 -11 5
-11 10 0 6 2 10 4 10 3 0 8 -4 11 -10z m43 -66 c-4 -3 -12 5 -18 18 -12 22
-12 22 6 6 10 -10 15 -20 12 -24z m-588 -138 c0 -11 -19 -15 -25 -6 -3 5 1 10
9 10 9 0 16 -2 16 -4z m778 -61 c-3 -3 -9 2 -12 12 -6 14 -5 15 5 6 7 -7 10
-15 7 -18z m-1283 -147 c5 4 5 2 2 -5 -4 -6 -1 -13 5 -16 7 -2 9 -8 5 -13 -5
-5 -13 -1 -18 9 -6 9 -14 15 -18 13 -4 -3 -8 1 -8 9 0 10 4 12 12 5 7 -5 16
-6 20 -2z m175 2 c0 -5 -4 -10 -10 -10 -5 0 -10 5 -10 10 0 6 5 10 10 10 6 0
10 -4 10 -10z m1110 -35 c0 -5 -5 -3 -10 5 -5 8 -10 20 -10 25 0 6 5 3 10 -5
5 -8 10 -19 10 -25z"/>
<path d="M2186 1868 c3 -5 10 -6 15 -3 13 9 11 12 -6 12 -8 0 -12 -4 -9 -9z"/>
<path d="M2146 1828 c3 -5 10 -6 15 -3 13 9 11 12 -6 12 -8 0 -12 -4 -9 -9z"/>
<path d="M106 1781 c-3 -5 3 -11 15 -14 16 -4 18 -3 8 9 -13 16 -16 17 -23 5z"/>
<path d="M1268 1783 c6 -2 10 -8 8 -12 -3 -4 1 -8 9 -8 11 0 12 4 4 14 -6 7
-17 13 -23 12 -7 0 -6 -2 2 -6z"/>
<path d="M2452 1758 c-7 -7 -12 -16 -12 -21 0 -5 7 -1 16 8 9 9 14 18 12 20
-2 3 -10 -1 -16 -7z"/>
<path d="M1211 1744 c0 -11 3 -14 6 -6 3 7 2 16 -1 19 -3 4 -6 -2 -5 -13z"/>
<path d="M786 1707 c3 -10 9 -15 12 -12 3 3 0 11 -7 18 -10 9 -11 8 -5 -6z"/>
<path d="M1740 1700 c0 -5 5 -10 11 -10 5 0 7 5 4 10 -3 6 -8 10 -11 10 -2 0
-4 -4 -4 -10z"/>
<path d="M916 1668 c3 -4 11 -5 19 -1 21 7 19 12 -4 10 -11 0 -18 -5 -15 -9z"/>
<path d="M1396 1662 c-3 -5 1 -9 9 -9 8 0 12 4 9 9 -3 4 -7 8 -9 8 -2 0 -6 -4
-9 -8z"/>
<path d="M367 1596 c-4 -10 -1 -13 8 -9 8 3 12 9 9 14 -7 12 -11 11 -17 -5z"/>
<path d="M470 1601 c0 -4 -16 -7 -34 -6 -19 1 -33 -2 -30 -7 3 -4 2 -8 -3 -9
-4 0 -18 -2 -30 -5 -13 -2 -23 0 -23 5 0 5 -7 12 -16 15 -15 6 -15 4 -3 -10
13 -16 11 -15 -20 0 -27 14 -35 15 -42 5 -4 -7 -6 -16 -3 -20 2 -4 -3 -12 -11
-19 -8 -7 -12 -17 -8 -23 3 -6 1 -7 -6 -3 -9 6 -9 11 -1 21 8 9 7 14 -4 18
-11 4 -13 1 -9 -10 5 -12 3 -14 -8 -8 -11 6 -12 5 -1 -6 14 -16 16 -49 2 -49
-5 0 -10 -4 -10 -8 0 -5 7 -9 15 -9 8 0 12 4 9 9 -3 4 0 8 5 8 18 0 12 -18
-10 -33 -13 -10 -17 -17 -10 -22 6 -3 9 -11 6 -16 -3 -5 0 -6 8 -3 8 3 17 -2
21 -11 3 -9 2 -13 -4 -10 -5 3 -17 2 -26 -3 -11 -6 -13 -11 -5 -16 6 -4 11 -2
11 4 0 6 5 8 11 4 8 -4 3 -12 -12 -21 -13 -8 -16 -12 -6 -9 16 5 22 -5 18 -28
-1 -5 3 -12 9 -16 8 -5 6 -9 -5 -13 -9 -4 -13 -3 -10 3 3 6 2 10 -4 10 -6 0
-8 -12 -4 -32 5 -24 3 -29 -7 -23 -8 5 -11 4 -6 -3 4 -6 13 -9 21 -5 20 7 19
-7 -2 -24 -10 -8 -13 -12 -7 -9 21 10 23 -22 3 -45 -23 -26 -23 -26 -4 -26 8
0 11 5 8 11 -3 7 -1 6 7 -1 14 -13 4 -37 -12 -27 -6 4 -8 2 -4 -4 3 -5 1 -12
-6 -14 -7 -3 -5 -7 6 -11 11 -5 15 -3 10 5 -4 7 -3 8 4 4 12 -7 -2 -43 -22
-57 -4 -4 -3 -10 3 -13 6 -4 8 -12 5 -18 -4 -7 -2 -8 4 -4 6 4 9 14 6 24 -4
13 -3 13 7 -2 10 -16 9 -22 -10 -37 -25 -20 -26 -26 -6 -26 8 0 11 5 8 11 -3
6 -2 7 2 3 12 -10 16 -39 5 -32 -13 8 -18 -18 -8 -38 6 -12 5 -19 -7 -23 -11
-5 -13 -10 -5 -19 5 -6 6 -16 2 -20 -4 -5 -2 -5 5 -1 7 4 10 14 7 24 -4 13 -3
13 7 -2 10 -16 9 -22 -10 -37 -13 -10 -17 -20 -11 -24 5 -3 10 -1 10 6 0 7 3
9 7 5 5 -4 -1 -14 -11 -22 -23 -16 -14 -19 15 -4 10 6 19 7 19 2 0 -5 -10 -14
-22 -20 -20 -10 -17 -11 22 -8 25 3 37 2 28 0 -10 -3 -18 -11 -18 -17 0 -7 -4
-6 -10 3 -5 8 -10 10 -10 4 0 -5 6 -19 14 -29 12 -16 16 -17 30 -6 9 7 16 19
16 26 0 8 13 12 38 10 20 -1 39 -4 42 -5 3 -1 8 -2 12 -1 4 0 12 -8 18 -19 14
-26 26 -25 34 3 l6 22 20 -25 c17 -20 19 -21 14 -5 -4 11 -14 26 -22 33 -9 6
-12 12 -7 12 5 0 16 -7 25 -15 15 -13 19 -14 29 -1 9 11 9 16 0 22 -8 5 -9 3
-4 -6 5 -9 4 -11 -4 -6 -8 5 -7 13 4 28 11 17 12 25 2 37 -10 12 -9 14 3 9 13
-5 16 1 14 24 -1 17 -8 35 -16 39 -10 7 -10 9 0 9 10 0 10 5 1 23 -12 21 -11
21 6 7 17 -14 17 -14 7 7 -15 27 -15 36 -2 28 6 -3 7 1 4 9 -3 9 -11 13 -18
10 -6 -3 -1 3 12 15 13 11 18 22 12 26 -5 3 -10 1 -10 -4 0 -6 -4 -11 -9 -11
-13 0 -1 43 16 57 12 9 11 13 -4 25 -20 14 -23 31 -9 45 5 4 6 3 3 -3 -4 -7 1
-18 11 -25 14 -11 15 -11 5 0 -6 7 -9 20 -6 27 3 9 -2 14 -13 14 -16 0 -17 2
-4 10 8 5 11 10 7 10 -4 0 -3 8 2 18 6 11 6 24 0 34 -7 12 -5 19 7 26 11 6 13
11 5 16 -6 4 -11 2 -11 -3 0 -6 -3 -11 -7 -11 -5 0 -8 11 -8 24 0 17 3 21 11
15 8 -7 10 0 8 21 -3 23 0 29 9 24 13 -9 -12 26 -28 38 -6 5 -5 8 3 8 10 0 10
5 1 23 -12 21 -11 21 6 7 17 -14 18 -14 6 8 -6 12 -9 26 -6 31 3 5 -1 12 -7
14 -8 3 -6 6 5 6 9 1 17 6 17 12 0 5 -4 7 -10 4 -6 -4 -7 1 -3 11 4 12 3 15
-5 10 -9 -5 -9 -1 -3 18 8 19 6 26 -5 30 -8 3 -12 10 -9 16 3 5 1 10 -4 10 -6
0 -11 -7 -11 -16 0 -8 -4 -13 -10 -9 -5 3 -7 12 -3 20 3 8 2 15 -1 15 -3 0 -6
-4 -6 -9z m-6 -27 c3 -7 -2 -10 -15 -7 -22 6 -26 20 -4 20 8 0 16 -6 19 -13z
m-210 -132 c3 -5 -1 -9 -9 -9 -8 0 -15 4 -15 9 0 4 4 8 9 8 6 0 12 -4 15 -8z
m271 -211 c3 -5 2 -12 -3 -15 -5 -3 -9 1 -9 9 0 17 3 19 12 6z m5 -131 c0 -5
-5 -10 -11 -10 -5 0 -7 5 -4 10 3 6 8 10 11 10 2 0 4 -4 4 -10z m-113 -326
c-3 -3 -12 -4 -19 -1 -8 3 -5 6 6 6 11 1 17 -2 13 -5z m33 -11 c0 -5 -5 -15
-10 -23 -8 -12 -10 -11 -10 8 0 12 5 22 10 22 6 0 10 -3 10 -7z m-155 -23 c-3
-5 -10 -10 -16 -10 -5 0 -9 5 -9 10 0 6 7 10 16 10 8 0 12 -4 9 -10z"/>
<path d="M2227 1509 c7 -7 15 -10 18 -7 3 3 -2 9 -12 12 -14 6 -15 5 -6 -5z"/>
<path d="M1620 1415 c0 -7 30 -13 34 -7 3 4 -4 9 -15 9 -10 1 -19 0 -19 -2z"/>
<path d="M216 1328 c3 -5 10 -6 15 -3 13 9 11 12 -6 12 -8 0 -12 -4 -9 -9z"/>
<path d="M1547 1316 c-12 -9 -14 -16 -8 -21 6 -3 11 -1 11 5 0 6 4 9 8 6 5 -3
9 1 9 9 0 8 -1 15 -1 15 -1 0 -9 -7 -19 -14z"/>
<path d="M1590 1260 c0 -5 5 -10 11 -10 5 0 7 5 4 10 -3 6 -8 10 -11 10 -2 0
-4 -4 -4 -10z"/>
<path d="M220 1190 c-9 -6 -10 -10 -3 -10 6 0 15 5 18 10 8 12 4 12 -15 0z"/>
<path d="M1907 1129 c7 -7 15 -10 18 -7 3 3 -2 9 -12 12 -14 6 -15 5 -6 -5z"/>
<path d="M2340 1085 c0 -5 5 -17 10 -25 5 -8 10 -10 10 -5 0 6 -5 17 -10 25
-5 8 -10 11 -10 5z"/>
<path d="M690 999 c0 -5 5 -7 10 -4 6 3 10 8 10 11 0 2 -4 4 -10 4 -5 0 -10
-5 -10 -11z"/>
<path d="M1333 993 c0 -10 4 -10 16 -1 9 7 18 13 20 15 2 1 -5 1 -16 0 -11 0
-20 -7 -20 -14z"/>
<path d="M2088 937 c12 -7 19 -17 15 -22 -4 -4 -2 -5 6 0 12 7 11 10 -4 22
-11 7 -24 13 -29 13 -6 -1 -1 -6 12 -13z"/>
<path d="M1046 822 c-2 -4 -1 -14 4 -22 7 -11 9 -9 7 8 -1 24 -3 26 -11 14z"/>
<path d="M530 800 c0 -5 5 -10 11 -10 5 0 7 5 4 10 -3 6 -8 10 -11 10 -2 0 -4
-4 -4 -10z"/>
<path d="M825 760 c-4 -6 -10 -8 -15 -5 -4 3 -13 -2 -20 -10 -14 -17 -14 -17
17 -20 16 -2 20 2 15 14 -4 13 -1 12 17 -4 22 -19 23 -19 33 -2 9 17 12 17 27
3 18 -17 42 -16 63 2 11 8 17 9 26 0 10 -10 10 -6 3 31 -1 2 -8 -2 -16 -9 -8
-7 -15 -9 -15 -5 0 4 -6 2 -13 -4 -8 -6 -18 -7 -22 -3 -5 4 -5 1 -1 -5 4 -7 3
-13 -3 -13 -5 0 -11 5 -13 11 -2 7 -15 12 -28 13 -14 1 -30 5 -37 9 -6 4 -14
3 -18 -3z m40 -12 c5 4 5 1 1 -6 -6 -10 -11 -10 -22 -1 -8 6 -14 14 -14 16 0
3 6 0 13 -6 8 -6 18 -7 22 -3z m-55 -8 c0 -5 -5 -10 -11 -10 -5 0 -7 5 -4 10
3 6 8 10 11 10 2 0 4 -4 4 -10z"/>
<path d="M2624 750 c0 -13 4 -16 10 -10 7 7 7 13 0 20 -6 6 -10 3 -10 -10z"/>
<path d="M324 752 c3 -3 1 -11 -5 -19 -7 -8 -8 -13 -1 -13 5 0 13 7 16 16 6
15 8 15 24 2 20 -18 49 -20 49 -3 0 6 -5 12 -11 13 -6 1 -26 3 -44 5 -18 3
-31 2 -28 -1z m61 -20 c-3 -3 -11 0 -18 7 -9 10 -8 11 6 5 10 -3 15 -9 12 -12z"/>
<path d="M1230 746 c0 -8 4 -17 9 -20 5 -4 7 3 4 14 -6 23 -13 26 -13 6z"/>
<path d="M1271 746 c-7 -8 -8 -17 -3 -20 6 -3 15 1 21 8 7 8 8 17 3 20 -6 3
-15 -1 -21 -8z"/>
<path d="M1396 744 c-20 -19 -20 -25 -2 -18 8 3 17 12 20 20 7 18 1 18 -18 -2z"/>
<path d="M1428 742 c-4 -13 1 -18 22 -18 26 -2 27 -1 12 17 -20 24 -28 24 -34
1z"/>
<path d="M2359 757 c-4 -13 -6 -37 -2 -37 2 0 11 6 18 14 12 12 12 15 0 20 -8
3 -15 4 -16 3z"/>
<path d="M1307 737 c-3 -7 3 -13 13 -13 10 0 16 6 13 13 -3 7 -9 13 -13 13 -4
0 -10 -6 -13 -13z"/>
</g>
</svg>
